<svg xmlns="http://www.w3.org/2000/svg" id="Layer_1" enable-background="new 0 0 64 64" viewBox="0 0 64 64"><circle cx="32" cy="32" r="32" fill="#c8c8c8"/><circle cx="32" cy="32" r="27.77" fill="#696967"/><polygon fill="#b3b3b3" points="35.54 32 32 14.2 28.46 32 32 49.8"/><polygon fill="#b3b3b3" points="32 28.46 14.2 32 32 35.54 49.8 32"/><polygon fill="#b3b3b3" points="33.69 30.31 23.49 23.49 30.31 33.69 40.51 40.51"/><polygon fill="#ffcb67" points="47.21 16.79 35.02 35.03 28.97 28.97"/><polygon fill="#e7715e" points="35.02 35.03 16.79 47.21 28.97 28.97"/><circle cx="32" cy="32" r="3.03" fill="#fff"/><g><circle cx="32" cy="7.01" r="1.26" fill="#fff"/><path fill="#fff" d="M20.6 9.72c.35.6.14 1.38-.46 1.72-.6.35-1.38.14-1.72-.46-.35-.6-.14-1.38.46-1.72C19.48 8.91 20.25 9.12 20.6 9.72zM10.99 18.41c.6.35.81 1.12.46 1.72-.35.6-1.12.81-1.72.46-.6-.35-.81-1.12-.46-1.72C9.61 18.27 10.38 18.06 10.99 18.41zM7.01 30.74c.7 0 1.26.57 1.26 1.26s-.57 1.26-1.26 1.26c-.7 0-1.26-.57-1.26-1.26S6.31 30.74 7.01 30.74zM9.72 43.4c.6-.35 1.38-.14 1.72.46.35.6.14 1.38-.46 1.72-.6.35-1.38.14-1.72-.46C8.91 44.52 9.12 43.75 9.72 43.4zM18.41 53.01c.35-.6 1.12-.81 1.72-.46.6.35.81 1.12.46 1.72-.35.6-1.12.81-1.72.46C18.27 54.39 18.06 53.62 18.41 53.01z"/><circle cx="32" cy="56.99" r="1.26" fill="#fff"/><path fill="#fff" d="M43.4 54.28c-.35-.6-.14-1.38.46-1.72.6-.35 1.38-.14 1.72.46.35.6.14 1.38-.46 1.72C44.52 55.09 43.75 54.88 43.4 54.28zM53.01 45.59c-.6-.35-.81-1.12-.46-1.72.35-.6 1.12-.81 1.72-.46.6.35.81 1.12.46 1.72C54.39 45.73 53.62 45.94 53.01 45.59z"/><circle cx="56.99" cy="32" r="1.26" fill="#fff"/><path fill="#fff" d="M54.28 20.6c-.6.35-1.38.14-1.72-.46-.35-.6-.14-1.38.46-1.72.6-.35 1.38-.14 1.72.46S54.88 20.25 54.28 20.6zM45.59 10.99c-.35.6-1.12.81-1.72.46-.6-.35-.81-1.12-.46-1.72.35-.6 1.12-.81 1.72-.46C45.73 9.61 45.94 10.38 45.59 10.99z"/></g></svg>