<svg xmlns="http://www.w3.org/2000/svg" width="64" height="64" viewBox="0 0 16.933 16.933"><path fill="#e4eff8" d="m 8.4664092,0.7936219 c 0.5863384,0 1.0583725,0.4718148 1.0583725,1.0578808 0,0.5860659 -0.4720341,1.0578807 -1.0583725,1.0578807 -0.5863384,0 -1.0583725,-0.4718148 -1.0583725,-1.0578807 0,-0.586066 0.4720341,-1.0578808 1.0583725,-1.0578808 z"/><path fill="#ffca28" d="m 8.4664082,2.6524385 c -3.7962063,-3e-7 -6.8789085,3.080438 -6.8789085,6.8750888 1e-7,3.7946507 3.0827022,6.8766387 6.8789085,6.8766387 3.7962058,0 6.8794248,-3.081988 6.8794248,-6.8766387 0,-3.7946505 -3.083219,-6.8750888 -6.8794248,-6.8750888 z"/><path fill="#e4eff8" d="M 13.758274,9.5249434 A 5.2918658,5.2917109 0 0 1 8.4664078,14.816654 5.2918658,5.2917109 0 0 1 3.174542,9.5249434 5.2918658,5.2917109 0 0 1 8.4664078,4.2332325 5.2918658,5.2917109 0 0 1 13.758274,9.5249434 Z"/><path fill="#c4dcf0" d="M 8.4664082,4.2332334 A 5.2918661,5.2917108 0 0 0 3.1745426,9.5249434 5.2918661,5.2917108 0 0 0 5.025662,13.542819 5.2918661,5.2917108 0 0 1 3.7037291,10.054114 5.2918661,5.2917108 0 0 1 8.9955947,4.7624044 5.2918661,5.2917108 0 0 1 12.436341,6.0362389 5.2918661,5.2917108 0 0 0 8.4664082,4.2332334 Z"/><path fill="#ff5151" d="m 11.279779,6.4424189 a 0.26461974,0.26461196 0 0 0 -0.02584,0.00103 0.26461974,0.26461196 0 0 0 -0.08992,0.025321 L 7.3434359,8.2790119 A 0.26461974,0.26461196 0 0 0 7.2183743,8.4040698 L 5.4173828,12.216788 a 0.26461974,0.26461196 0 0 0 0.35193,0.35347 L 9.580076,10.767769 A 0.26461974,0.26461196 0 0 0 9.7066892,10.642714 L 11.515432,6.8201769 a 0.26461974,0.26461196 0 0 0 -0.235653,-0.377758 z"/><path fill="#e4eff8" d="m 13.24658,0.7477116 c 0,0.2922581 -0.236922,0.52918 -0.52918,0.5291801 -0.292258,5e-7 -0.529181,-0.2369217 -0.529181,-0.5291801 0,-0.29225845 0.236923,-0.5291806 0.529181,-0.52918011 0.292258,6e-8 0.52918,0.23692205 0.52918,0.52918011 z" transform="rotate(45.011)"/><path fill="#38668c" d="M 8.462632,3.9784136 C 8.3164523,3.9800015 8.1992549,4.0998193 8.2009035,4.245994 v 0.7812564 c 0,0.3528673 0.5293168,0.3528673 0.5293168,0 V 4.245994 C 8.7318954,4.0975251 8.6111053,3.9767385 8.462632,3.9784136 Z" color="#000" font-family="sans-serif" font-weight="400" overflow="visible" white-space="normal" style="line-height:normal;font-variant-ligatures:normal;font-variant-position:normal;font-variant-caps:normal;font-variant-numeric:normal;font-variant-alternates:normal;font-feature-settings:normal;text-indent:0;text-align:start;text-decoration-line:none;text-decoration-style:solid;text-decoration-color:#000;text-transform:none;text-orientation:mixed;shape-padding:0;isolation:auto;mix-blend-mode:normal"/><path fill="#c4dcf0" d="m 8.4664082,0.7936219 c -0.5863385,0 -1.0583732,0.4717593 -1.0583732,1.0578252 0,0.4306806 0.2558983,0.7978733 0.6237581,0.9632567 -0.059689,-0.1326516 -0.094571,-0.2787109 -0.094571,-0.4340857 0,-0.5860659 0.4720347,-1.0578252 1.0583731,-1.0578252 0.155447,0 0.301902,0.034908 0.4346151,0.094569 -0.1654549,-0.3677038 -0.5329107,-0.62374 -0.9638021,-0.62374 z"/><path fill="#38668c" d="M8.4665385.52916662c-.7282845 0-1.3223155.59414488-1.3223155 1.32227648 0 .7281316.594031 1.3222764 1.3223155 1.3222764.7282844 0 1.3223153-.5941448 1.3223153-1.3222764 0-.7281316-.5940309-1.32227649-1.3223153-1.32227648zm0 .52930128c.4443922 0 .7929985.3489748.7929985.7929752 0 .4440003-.3486063.7929752-.7929985.7929752-.4443923 0-.7929987-.3489749-.7929987-.7929752 0-.4440004.3486064-.7929752.7929987-.7929752zM12.964755 9.2597069c-.352878 0-.352878.5293013 0 .5293013h.792997c.352878 0 .352878-.5293013 0-.5293013zM3.1753238 9.2597069c-.3528778 0-.3528778.5293013 0 .5293013h.7890923c.3528778 0 .3528778-.5293013 0-.5293013zM8.462632 13.75779c-.1469548.0016-.2644707.122601-.2617285.269534v.789069c0 .352867.5293168.352867.5293168 0V14.027324C8.7330064 13.878093 8.6118839 13.75609 8.462632 13.75779z" color="#000" font-family="sans-serif" font-weight="400" overflow="visible" white-space="normal" style="line-height:normal;font-variant-ligatures:normal;font-variant-position:normal;font-variant-caps:normal;font-variant-numeric:normal;font-variant-alternates:normal;font-feature-settings:normal;text-indent:0;text-align:start;text-decoration-line:none;text-decoration-style:solid;text-decoration-color:#000;text-transform:none;text-orientation:mixed;shape-padding:0;isolation:auto;mix-blend-mode:normal"/><path fill="#ecb200" d="m 13.059065,4.4120353 c 1.092257,1.2171237 1.757582,2.8243115 1.757582,4.586321 0,3.7946497 -3.08322,6.8766387 -6.8794254,6.8766387 -1.763678,0 -3.3730193,-0.665701 -4.5911067,-1.758563 1.2598389,1.403636 3.0875191,2.287734 5.1202933,2.287734 3.7962058,0 6.8794248,-3.081988 6.8794248,-6.8766387 0,-2.0308945 -0.883824,-3.8564992 -2.286768,-5.115492 z"/><path fill="#ff2929" d="m 11.279779,6.4424189 a 0.26461974,0.26461196 0 0 0 -0.02584,0.00103 0.26461974,0.26461196 0 0 0 -0.08992,0.025321 l -0.33746,0.1602 -1.6490575,3.4845701 a 0.26461974,0.26461196 0 0 1 -0.1266121,0.125058 l -3.4758873,1.643841 -0.1576193,0.334349 a 0.26461974,0.26461196 0 0 0 0.35193,0.35347 L 9.580076,10.767769 A 0.26461974,0.26461196 0 0 0 9.7066892,10.642714 L 11.515432,6.8201769 a 0.26461974,0.26461196 0 0 0 -0.235653,-0.377758 z"/></svg>