<svg xmlns="http://www.w3.org/2000/svg" data-name="Layer 1" viewBox="0 0 512 512"><g data-name="&lt;Group&gt;"><g data-name="&lt;Group&gt;"><path fill="#ed664c" d="M480.31,307.18l-23.96,62.06-37.02-1.09a183.692,183.692,0,0,1-43.55,45.74l2.72,37.02-60.98,26.67-25.58-26.67a204.616,204.616,0,0,1-63.16,1.63l-23.95,27.77-62.07-23.96,1.09-37.02a183.479,183.479,0,0,1-45.73-43.55L61.1,378.5,34.42,317.52l26.67-25.58a204.616,204.616,0,0,1-1.63-63.16L31.69,204.82l23.96-62.06,37.02,1.09a183.692,183.692,0,0,1,43.55-45.74L133.5,61.09l60.98-26.67,25.58,26.67a204.688,204.688,0,0,1,63.17-1.63l23.95-27.77,62.07,23.96-1.09,37.02a183.479,183.479,0,0,1,45.73,43.55l37.02-2.72,26.68,60.98-26.68,25.58a204.309,204.309,0,0,1,1.64,63.16ZM396.89,256A140.89,140.89,0,1,0,256,396.89,140.892,140.892,0,0,0,396.89,256Z" data-name="&lt;Group&gt;"/><path fill="#fdc75b" d="M181.2,252.63a19.435,19.435,0,1,0-13.75-5.69A19.36,19.36,0,0,0,181.2,252.63ZM256,200.46a19.43,19.43,0,1,0-13.74-5.69A19.4,19.4,0,0,0,256,200.46Zm74.8,52.17a19.435,19.435,0,1,0-13.74-5.69A19.348,19.348,0,0,0,330.8,252.63ZM256,115.11A140.89,140.89,0,1,1,115.11,256,140.892,140.892,0,0,1,256,115.11Z" data-name="&lt;Group&gt;"/><path fill="#ed664c" d="M330.8 252.63a19.435 19.435 0 1 1 13.75-5.69A19.36 19.36 0 0 1 330.8 252.63zM256 200.46a19.43 19.43 0 1 1 13.74-5.69A19.4 19.4 0 0 1 256 200.46zM181.2 252.63a19.435 19.435 0 1 1 13.74-5.69A19.348 19.348 0 0 1 181.2 252.63z" data-name="&lt;Group&gt;"/></g><g data-name="&lt;Group&gt;"><path d="M256,107.11c-82.1,0-148.89,66.792-148.89,148.89S173.9,404.89,256,404.89,404.89,338.1,404.89,256,338.1,107.11,256,107.11Zm0,85.35a11.43,11.43,0,1,1,8.089-3.353A11.379,11.379,0,0,1,256,192.46Zm43,189.209V309h31.8a8.6,8.6,0,0,0,8.2-8.48V259.456a28.621,28.621,0,0,0,11.307-6.859,27.472,27.472,0,1,0-38.8,0A29.334,29.334,0,0,0,323,259.451V293H291.22c-4.418,0-8.22,3.1-8.22,7.52v85.562a124.862,124.862,0,0,1-19,2.56V207.279a27.371,27.371,0,0,0,11.39-6.844l.007-.008a27.406,27.406,0,1,0-27.4,6.852V388.642a124.862,124.862,0,0,1-19-2.56V300.52c0-4.418-3.8-7.52-8.22-7.52H189V259.451a29.345,29.345,0,0,0,11.5-6.854,27.407,27.407,0,1,0-46.746-19.4,27.16,27.16,0,0,0,7.931,19.394A28.654,28.654,0,0,0,173,259.455V300.52a8.6,8.6,0,0,0,8.2,8.48H213v72.669C161,363.693,123.22,314.151,123.22,256c0-73.276,59.559-132.89,132.835-132.89S388.808,182.724,388.808,256C388.808,314.151,351,363.693,299,381.669ZM330.8,244.63a11.36,11.36,0,0,1-8.083-3.346h0a11.438,11.438,0,1,1,16.168.008A11.335,11.335,0,0,1,330.8,244.63Zm-149.6,0a11.435,11.435,0,1,1,8.083-3.347h0A11.36,11.36,0,0,1,181.2,244.63Z" data-name="&lt;Compound Path&gt;"/><path d="M461,279.944a211.986,211.986,0,0,0-1.481-57.053l23.608-22.637a8,8,0,0,0,1.793-8.981l-26.68-60.98a7.991,7.991,0,0,0-7.915-4.772l-32.683,2.4a190.854,190.854,0,0,0-41.356-39.388l.962-32.65a8,8,0,0,0-5.116-7.7l-62.07-23.96a8,8,0,0,0-8.939,2.238l-21.17,24.546a212.267,212.267,0,0,0-57.06,1.474l-22.639-23.6a8,8,0,0,0-8.979-1.792l-60.98,26.67a8,8,0,0,0-4.773,7.916l2.4,32.685a191.023,191.023,0,0,0-39.388,41.364l-32.65-.962a8,8,0,0,0-7.7,5.115l-23.96,62.06a8,8,0,0,0,2.237,8.939l24.547,21.18a212.242,212.242,0,0,0,1.474,57.052l-23.6,22.638a8,8,0,0,0-1.791,8.98l26.68,60.98a7.991,7.991,0,0,0,7.915,4.772l32.684-2.4a190.805,190.805,0,0,0,41.355,39.388l-.962,32.65a8,8,0,0,0,5.116,7.7l62.07,23.96a7.994,7.994,0,0,0,8.939-2.238l21.17-24.546a212.273,212.273,0,0,0,57.051-1.473l22.638,23.6a8,8,0,0,0,8.979,1.792l60.98-26.67a8,8,0,0,0,4.773-7.916l-2.4-32.685a191.023,191.023,0,0,0,39.388-41.364l32.65.962a7.973,7.973,0,0,0,7.7-5.115l23.96-62.06a8,8,0,0,0-2.236-8.938Zm-10.073,81.133-31.361-.924a8.01,8.01,0,0,0-6.891,3.558,175.238,175.238,0,0,1-41.653,43.749,8,8,0,0,0-3.22,7.017l2.305,31.373-50.677,22.163-21.716-22.64a8,8,0,0,0-7.212-2.332,196.342,196.342,0,0,1-60.69,1.566,8,8,0,0,0-7.089,2.708l-20.269,23.5-51.53-19.891.924-31.361a8,8,0,0,0-3.558-6.891,175,175,0,0,1-43.737-41.651,8.01,8.01,0,0,0-7.018-3.222L66.16,370.106,43.987,319.429l22.641-21.716A8,8,0,0,0,68.96,290.5a196.313,196.313,0,0,1-1.567-60.69,8,8,0,0,0-2.707-7.088l-23.5-20.279,19.891-51.521,31.36.924a8.014,8.014,0,0,0,6.892-3.558,175.238,175.238,0,0,1,41.653-43.749,8,8,0,0,0,3.22-7.017L141.894,66.15l50.677-22.163,21.716,22.64a8,8,0,0,0,7.211,2.332,196.453,196.453,0,0,1,60.7-1.566,7.992,7.992,0,0,0,7.089-2.708l20.269-23.5,51.53,19.891-.923,31.361a8,8,0,0,0,3.558,6.891,174.982,174.982,0,0,1,43.736,41.652,8.014,8.014,0,0,0,7.019,3.221l31.373-2.305,22.172,50.676-22.648,21.716a8,8,0,0,0-2.333,7.216,196.032,196.032,0,0,1,1.576,60.687,8,8,0,0,0,2.706,7.087l23.5,20.279Z" data-name="&lt;Compound Path&gt;"/></g></g></svg>