<svg xmlns="http://www.w3.org/2000/svg" width="64" height="64" viewBox="0 0 64 64"><g transform="translate(1 -986.359)"><rect width="14" height="13" x="25" y="1024.362" fill="#ffc107"/><circle cx="32" cy="1014.362" r="15" fill="#ffc107"/><path fill="none" stroke="#e9eded" d="M29.5 1019.3622l0 14M34.5 1019.3622l0 14"/><rect width="10" height="10" x="27" y="1034.362" fill="#263238"/><path fill="#ff9800" d="m 32.00001,999.3622 a 15.00001,15.00001 0 0 1 15,15 15.00001,15.00001 0 0 1 -8,13.2559 l 0,9.7441 -2,0 0,-9.7441 a 15.00001,15.00001 0 0 0 8,-13.2559 15.00001,15.00001 0 0 0 -14.115234,-14.95703 15.00001,15.00001 0 0 1 1.115234,-0.043 z"/><rect width="16" height="10" x="24" y="1032.362" fill="#455a64"/><rect width="18" height="2" x="23" y="1033.362" fill="#263238" rx="1" ry="1"/><rect width="18" height="2" x="23" y="1036.362" fill="#263238" rx="1" ry="1"/><rect width="18" height="2" x="23" y="1039.362" fill="#263238" rx="1" ry="1"/><path fill="none" stroke="#e9eded" d="m 37,1018.8622 -10,0"/><path fill="none" stroke="#ffeb3b" d="m 19.500029,1014.3622 a 12.499987,12.499987 0 0 1 12.499987,-12.5"/><path fill="none" stroke="#263238" stroke-width="1.149" d="m -838.35753,1352.4761 a 5.5702195,21.86043 0 0 1 -7.77756,4.6605 5.5702195,21.86043 0 0 1 -1.20683,-30.5116 5.5702195,21.86043 0 0 1 7.77158,-4.8118" transform="matrix(1 0 .6531 .75727 0 0)"/><path fill="none" stroke="#263238" stroke-width="1.149" d="m -902.35783,1352.4761 a 5.5702195,21.86043 0 0 1 -7.77757,4.6605 5.5702195,21.86043 0 0 1 -1.20682,-30.5116 5.5702195,21.86043 0 0 1 7.77158,-4.8118" transform="skewX(40.776) scale(1 -.75727)"/><path fill="none" stroke="#263238" d="m -1009.8714,-16.682534 a 5.5702195,18.915934 0 0 1 -7.3271,-3.436353 5.5702195,18.915934 0 0 1 0.1376,-25.113756 5.5702195,18.915934 0 0 1 7.3596,-2.508917" transform="matrix(0 -1 -.99952 -.03086 0 0)"/><circle cx="12.514" cy="1036.869" r="1" fill="none" stroke="#f57c00" stroke-linecap="round" stroke-linejoin="round" color="#000" overflow="visible" style="isolation:auto;mix-blend-mode:normal"/><circle cx="50.5" cy="1024.862" r="1" fill="none" stroke="#f57c00" stroke-linecap="round" stroke-linejoin="round" color="#000" overflow="visible" style="isolation:auto;mix-blend-mode:normal"/><circle cx="36.514" cy="994.869" r="1" fill="none" stroke="#f57c00" stroke-linecap="round" stroke-linejoin="round" color="#000" overflow="visible" style="isolation:auto;mix-blend-mode:normal"/><path fill="none" stroke="#03a9f4" stroke-linecap="round" stroke-linejoin="round" d="M6.5071122 1026.8622l.000009-2M5.5071212 1025.8622l1.999991 0M48.507112 1036.8622l.000009-2M47.507121 1035.8622l1.999991 0M52.507112 1007.8622l.000009-2M51.507121 1006.8622l1.999991 0M22.507112 994.8622l.000009-2M21.507121 993.8622l1.999991 0"/><path fill="none" stroke="#455a64" stroke-linecap="round" stroke-linejoin="round" d="M12.080736 1001.2815l1.414214-1.41425M12.080736 999.86725l1.414214 1.41425M55.080736 1019.2815l1.414214-1.4142M55.080736 1017.8673l1.414214 1.4142"/></g></svg>